<!-- Generator: Adobe Illustrator 22.0.1, SVG Export Plug-In  -->
<svg version="1.1"
	 xmlns="http://www.w3.org/2000/svg" xmlns:xlink="http://www.w3.org/1999/xlink" xmlns:a="http://ns.adobe.com/AdobeSVGViewerExtensions/3.0/"
	 x="0px" y="0px" width="363.339px" height="87.874px" viewBox="0 0 363.339 87.874"
	 style="enable-background:new 0 0 363.339 87.874;" xml:space="preserve">
<style type="text/css">
	.st0{fill:#BE9E37;}
	.st1{fill:#29235C;}
	.st2{font-family:'MyriadPro-Regular';}
	.st3{font-size:13.0578px;}
	.st4{letter-spacing:1;}
</style>
<defs>
</defs>
<g id="XMLID_59_">
	<g id="XMLID_61_">
		<g id="XMLID_72_">
			<g id="XMLID_94_">
				<path id="XMLID_115_" class="st0" d="M108.603,9.628h5.304v0.898h-4.247v4.103h4.062v0.953h-4.062v5.432h-1.057V9.628z"/>
				<path id="XMLID_112_" class="st0" d="M120.867,9.628h1.298l4.511,11.387h-1.146l-1.202-3.101h-5.808l-1.194,3.101h-1.082
					L120.867,9.628z M121.491,10.573l-2.548,6.385h5.007L121.491,10.573z"/>
				<path id="XMLID_110_" class="st0" d="M138.146,9.988v1.034c-0.448-0.171-0.875-0.296-1.281-0.377
					c-0.406-0.08-0.804-0.119-1.194-0.119c-1.48,0-2.64,0.435-3.481,1.303c-0.841,0.867-1.262,2.064-1.262,3.593
					c0,1.447,0.42,2.583,1.262,3.411c0.841,0.828,2.001,1.242,3.481,1.242c0.438,0,0.856-0.037,1.254-0.113
					c0.398-0.074,0.784-0.187,1.158-0.344v1.065c-0.353,0.124-0.742,0.214-1.17,0.274c-0.428,0.058-0.908,0.086-1.442,0.086
					c-1.736,0-3.118-0.508-4.147-1.529c-1.028-1.019-1.542-2.39-1.542-4.111c0-1.774,0.534-3.185,1.603-4.234
					c1.068-1.049,2.503-1.575,4.302-1.575c0.481,0,0.928,0.031,1.342,0.097C137.442,9.758,137.815,9.857,138.146,9.988z"/>
				<path id="XMLID_108_" class="st0" d="M142.181,9.628h1.05v6.724c0,1.315,0.248,2.293,0.745,2.94
					c0.497,0.646,1.25,0.968,2.26,0.968c1.015,0,1.782-0.344,2.303-1.036c0.521-0.692,0.782-1.715,0.782-3.064V9.628h0.953v6.596
					c0,1.671-0.341,2.921-1.022,3.747c-0.681,0.828-1.708,1.242-3.081,1.242c-1.314,0-2.307-0.403-2.98-1.21
					c-0.673-0.805-1.01-1.994-1.01-3.564V9.628z"/>
				<path id="XMLID_106_" class="st0" d="M155.72,9.628h1.057v10.401h4.543v0.985h-5.601V9.628z"/>
				<path id="XMLID_103_" class="st0" d="M165.123,9.628h2.171c2.052,0,3.608,0.478,4.671,1.434
					c1.063,0.958,1.595,2.354,1.595,4.192c0,1.805-0.543,3.216-1.631,4.234c-1.086,1.018-2.599,1.528-4.538,1.528h-2.268V9.628z
					 M166.181,10.559v9.47h1.291c1.565,0,2.779-0.416,3.645-1.246c0.864-0.83,1.298-1.997,1.298-3.496
					c0-1.55-0.41-2.724-1.229-3.525c-0.82-0.802-2.029-1.202-3.625-1.202H166.181z"/>
				<path id="XMLID_100_" class="st0" d="M181.505,9.628h1.299l4.512,11.387h-1.147l-1.202-3.101h-5.808l-1.194,3.101h-1.08
					L181.505,9.628z M182.131,10.573l-2.549,6.385h5.008L182.131,10.573z"/>
				<path id="XMLID_97_" class="st0" d="M191.068,9.628h2.173c2.051,0,3.607,0.478,4.67,1.434c1.064,0.958,1.595,2.354,1.595,4.192
					c0,1.805-0.544,3.216-1.631,4.234c-1.086,1.018-2.599,1.528-4.538,1.528h-2.269V9.628z M192.127,10.559v9.47h1.291
					c1.565,0,2.779-0.416,3.645-1.246c0.866-0.83,1.299-1.997,1.299-3.496c0-1.55-0.41-2.724-1.231-3.525
					c-0.82-0.802-2.029-1.202-3.627-1.202H192.127z"/>
				<path id="XMLID_95_" class="st0" d="M204.151,9.628h5.552v0.898h-4.496v4.103h4.246v0.953h-4.246v4.447h4.59v0.985h-5.646V9.628
					z"/>
			</g>
			<g id="XMLID_73_">
				<path id="XMLID_92_" class="st1" d="M128.388,49.466h9.598c-1.249,4.152-3.473,7.413-6.672,9.786
					c-3.199,2.372-6.969,3.558-11.307,3.558c-2.388,0-4.608-0.367-6.66-1.1c-2.053-0.733-3.914-1.827-5.584-3.277
					c-2.013-1.78-3.547-3.82-4.6-6.122c-1.053-2.302-1.58-4.78-1.58-7.433c0-2.669,0.523-5.15,1.569-7.445
					c1.045-2.294,2.583-4.339,4.612-6.133c1.67-1.436,3.531-2.52,5.584-3.254c2.052-0.733,4.272-1.1,6.66-1.1
					c1.904,0,3.66,0.316,5.268,0.948c1.608,0.632,2.997,1.565,4.167,2.797V27.6h8.054v13.298h-8.732
					c-0.718-1.842-1.791-3.246-3.219-4.215c-1.428-0.967-3.149-1.452-5.162-1.452c-2.731,0-4.963,0.898-6.696,2.693
					c-1.732,1.795-2.598,4.113-2.598,6.953c0,2.762,0.85,5.049,2.552,6.86c1.701,1.811,3.839,2.715,6.414,2.715
					c1.873,0,3.496-0.409,4.869-1.229C126.297,52.404,127.452,51.152,128.388,49.466z"/>
				<path id="XMLID_89_" class="st1" d="M137.659,62.131v-6.907h2.927L147,34.506h-3.395V27.6h24.3v6.907h-3.347l6.368,20.718h2.973
					v6.907h-15.099v-6.907h3.067l-1.381-4.658h-9.458l-1.288,4.658h3.02v6.907H137.659z M152.431,44.432h6.672L155.733,33.5
					L152.431,44.432z"/>
				<path id="XMLID_87_" class="st1" d="M177.785,62.131v-6.907h3.511V34.412h-2.787l-1.778,5.432h-5.501V27.6h29.099v12.245h-5.526
					l-1.755-5.432h-2.787v20.812h3.489v6.907H177.785z"/>
				<path id="XMLID_83_" class="st1" d="M202.297,44.877c0-2.684,0.522-5.174,1.569-7.468c1.044-2.295,2.583-4.332,4.612-6.11
					c1.669-1.452,3.525-2.54,5.57-3.266c2.045-0.725,4.27-1.088,6.673-1.088s4.632,0.363,6.685,1.088
					c2.051,0.726,3.914,1.815,5.582,3.266c2.015,1.779,3.547,3.823,4.602,6.133c1.052,2.31,1.581,4.792,1.581,7.445
					c0,2.653-0.528,5.131-1.581,7.433c-1.054,2.302-2.587,4.343-4.602,6.122c-1.669,1.451-3.531,2.544-5.582,3.277
					c-2.053,0.733-4.282,1.1-6.685,1.1c-2.387,0-4.608-0.367-6.661-1.1s-3.914-1.827-5.582-3.277
					c-2.015-1.78-3.547-3.82-4.602-6.122C202.823,50.008,202.297,47.53,202.297,44.877z M211.8,44.877
					c0,2.762,0.85,5.049,2.553,6.86c1.701,1.811,3.84,2.715,6.414,2.715c2.575,0,4.712-0.901,6.414-2.704
					c1.701-1.803,2.551-4.093,2.551-6.871c0-2.794-0.854-5.1-2.563-6.918c-1.709-1.819-3.843-2.728-6.402-2.728
					c-2.561,0-4.694,0.913-6.404,2.739C212.655,39.797,211.8,42.099,211.8,44.877z M228.931,13.266l-7.607,8.685h-3.605l4.494-8.685
					H228.931z"/>
				<path id="XMLID_81_" class="st1" d="M241.508,62.131v-6.907h3.513V34.506h-3.513V27.6h15.966v6.907h-3.441v20.718h8.827
					l2.059-6.719h5.83v13.625H241.508z"/>
				<path id="XMLID_79_" class="st1" d="M272.574,62.131v-6.907h3.513V34.506h-3.513V27.6h16.108v6.907h-3.629v20.718h3.629v6.907
					H272.574z"/>
				<path id="XMLID_77_" class="st1" d="M317.828,49.466h9.6c-1.249,4.152-3.473,7.413-6.673,9.786
					c-3.199,2.372-6.969,3.558-11.308,3.558c-2.387,0-4.608-0.367-6.659-1.1c-2.053-0.733-3.914-1.827-5.584-3.277
					c-2.013-1.78-3.547-3.82-4.6-6.122c-1.054-2.302-1.581-4.78-1.581-7.433c0-2.669,0.522-5.15,1.569-7.445
					c1.044-2.294,2.583-4.339,4.612-6.133c1.671-1.436,3.531-2.52,5.584-3.254c2.051-0.733,4.272-1.1,6.659-1.1
					c1.905,0,3.662,0.316,5.268,0.948c1.609,0.632,2.997,1.565,4.168,2.797V27.6h8.053v13.298h-8.731
					c-0.718-1.842-1.793-3.246-3.219-4.215c-1.429-0.967-3.149-1.452-5.162-1.452c-2.731,0-4.964,0.898-6.697,2.693
					c-1.733,1.795-2.599,4.113-2.599,6.953c0,2.762,0.85,5.049,2.553,6.86c1.701,1.811,3.839,2.715,6.414,2.715
					c1.873,0,3.495-0.409,4.87-1.229C315.737,52.404,316.891,51.152,317.828,49.466z"/>
				<path id="XMLID_74_" class="st1" d="M327.099,62.131v-6.907h2.927l6.414-20.718h-3.395V27.6h24.299v6.907h-3.347l6.368,20.718
					h2.973v6.907h-15.1v-6.907h3.067l-1.383-4.658h-9.458l-1.287,4.658h3.019v6.907H327.099z M341.871,44.432h6.673L345.172,33.5
					L341.871,44.432z"/>
			</g>
		</g>
		<g id="XMLID_62_">
			<g id="XMLID_66_">
				<g id="XMLID_67_">
					<g id="XMLID_68_">
						<path id="XMLID_69_" class="st1" d="M43.937,87.874C19.71,87.874,0,68.167,0,43.937C0,19.71,19.71,0,43.937,0
							c24.226,0,43.937,19.71,43.937,43.937C87.874,68.167,68.163,87.874,43.937,87.874z M43.937,8.373
							c-19.612,0-35.565,15.952-35.565,35.564c0,19.613,15.954,35.566,35.565,35.566c19.612,0,35.566-15.953,35.566-35.566
							C79.502,24.325,63.549,8.373,43.937,8.373z"/>
					</g>
				</g>
			</g>
			<g id="XMLID_63_">
				<path id="XMLID_64_" class="st0" d="M52.795,49.769h10.447c-1.359,4.519-3.779,8.068-7.262,10.65
					c-3.482,2.582-7.584,3.872-12.307,3.872c-2.599,0-5.015-0.399-7.249-1.197c-2.234-0.798-4.26-1.987-6.077-3.567
					c-2.191-1.936-3.86-4.157-5.007-6.663c-1.146-2.505-1.72-5.202-1.72-8.09c0-2.905,0.569-5.605,1.707-8.102
					c1.138-2.498,2.811-4.723,5.019-6.676c1.817-1.563,3.843-2.743,6.077-3.542c2.233-0.797,4.65-1.197,7.249-1.197
					c2.072,0,3.983,0.344,5.733,1.031c1.75,0.688,3.261,1.704,4.536,3.045v-3.362h8.765v14.472h-9.504
					c-0.782-2.004-1.949-3.532-3.504-4.587c-1.554-1.052-3.427-1.579-5.618-1.579c-2.973,0-5.402,0.976-7.287,2.93
					c-1.886,1.953-2.828,4.476-2.828,7.567c0,3.007,0.925,5.495,2.777,7.466c1.851,1.971,4.179,2.955,6.982,2.955
					c2.038,0,3.805-0.445,5.3-1.337C50.518,52.967,51.776,51.603,52.795,49.769z"/>
			</g>
		</g>
	</g>
	<g id="XMLID_60_">
		<path class="st0" d="M108.636,71.713c0.549-0.091,1.268-0.169,2.182-0.169c1.123,0,1.946,0.261,2.469,0.731
			c0.483,0.418,0.771,1.058,0.771,1.841c0,0.797-0.235,1.424-0.679,1.881c-0.602,0.64-1.581,0.967-2.691,0.967
			c-0.339,0-0.652-0.013-0.914-0.078v3.526h-1.137V71.713z M109.773,75.958c0.248,0.065,0.562,0.092,0.94,0.092
			c1.372,0,2.208-0.667,2.208-1.881c0-1.163-0.823-1.725-2.077-1.725c-0.496,0-0.875,0.04-1.071,0.092V75.958z"/>
		<path class="st0" d="M117.738,77.643l-0.914,2.769h-1.176l2.991-8.804h1.372l3.004,8.804H121.8l-0.94-2.769H117.738z
			 M120.625,76.755l-0.861-2.534c-0.196-0.574-0.327-1.097-0.458-1.606h-0.025c-0.131,0.522-0.274,1.058-0.444,1.594l-0.862,2.547
			H120.625z"/>
		<path class="st0" d="M126.905,71.608v5.212c0,1.972,0.875,2.808,2.051,2.808c1.306,0,2.142-0.862,2.142-2.808v-5.212h1.15v5.133
			c0,2.704-1.424,3.814-3.331,3.814c-1.803,0-3.161-1.032-3.161-3.762v-5.186H126.905z"/>
		<path class="st0" d="M136.045,71.608h1.137v7.85h3.762v0.954h-4.898V71.608z"/>
		<path class="st0" d="M145.173,71.608v8.804h-1.136v-8.804H145.173z"/>
		<path class="st0" d="M148.828,79.027c0.51,0.313,1.254,0.575,2.037,0.575c1.163,0,1.842-0.614,1.842-1.502
			c0-0.823-0.47-1.293-1.658-1.75c-1.438-0.509-2.325-1.254-2.325-2.495c0-1.372,1.137-2.391,2.848-2.391
			c0.901,0,1.554,0.209,1.946,0.431l-0.313,0.927c-0.288-0.157-0.876-0.418-1.672-0.418c-1.202,0-1.659,0.719-1.659,1.319
			c0,0.823,0.535,1.228,1.75,1.698c1.489,0.574,2.247,1.293,2.247,2.586c0,1.358-1.006,2.534-3.083,2.534
			c-0.849,0-1.776-0.249-2.246-0.562L148.828,79.027z"/>
		<path class="st0" d="M158.922,72.575h-2.677v-0.967h6.518v0.967h-2.69v7.837h-1.15V72.575z"/>
		<path class="st0" d="M166.012,77.643l-0.914,2.769h-1.176l2.991-8.804h1.372l3.004,8.804h-1.215l-0.94-2.769H166.012z
			 M168.899,76.755l-0.862-2.534c-0.195-0.574-0.326-1.097-0.457-1.606h-0.025c-0.131,0.522-0.274,1.058-0.444,1.594l-0.862,2.547
			H168.899z"/>
		<path class="st1" d="M180.009,70.616v13.062h-0.875V70.616H180.009z"/>
		<path class="st1" d="M193.107,76.284h-3.422v3.174h3.814v0.954h-4.95v-8.804h4.754v0.954h-3.618v2.782h3.422V76.284z"/>
		<path class="st1" d="M196.801,71.726c0.691-0.104,1.515-0.183,2.416-0.183c1.633,0,2.795,0.378,3.565,1.097
			c0.784,0.718,1.241,1.737,1.241,3.161c0,1.437-0.444,2.612-1.268,3.422c-0.822,0.823-2.181,1.267-3.892,1.267
			c-0.81,0-1.489-0.039-2.063-0.104V71.726z M197.937,79.51c0.287,0.052,0.705,0.065,1.149,0.065c2.43,0,3.749-1.358,3.749-3.735
			c0.013-2.077-1.163-3.396-3.566-3.396c-0.587,0-1.031,0.053-1.332,0.118V79.51z"/>
		<path class="st1" d="M208.462,71.608v5.212c0,1.972,0.875,2.808,2.051,2.808c1.307,0,2.143-0.862,2.143-2.808v-5.212h1.148v5.133
			c0,2.704-1.423,3.814-3.33,3.814c-1.803,0-3.161-1.032-3.161-3.762v-5.186H208.462z"/>
		<path class="st1" d="M223.754,80.125c-0.418,0.209-1.254,0.418-2.325,0.418c-2.481,0-4.35-1.567-4.35-4.454
			c0-2.756,1.868-4.624,4.598-4.624c1.098,0,1.79,0.235,2.09,0.392l-0.273,0.927c-0.432-0.209-1.045-0.366-1.776-0.366
			c-2.064,0-3.436,1.319-3.436,3.631c0,2.155,1.241,3.54,3.383,3.54c0.692,0,1.397-0.144,1.854-0.366L223.754,80.125z"/>
		<path class="st1" d="M228.478,77.643l-0.914,2.769h-1.176l2.991-8.804h1.372l3.004,8.804h-1.215l-0.94-2.769H228.478z
			 M231.365,76.755l-0.862-2.534c-0.195-0.574-0.326-1.097-0.457-1.606h-0.025c-0.131,0.522-0.274,1.058-0.444,1.594l-0.862,2.547
			H231.365z"/>
		<path class="st1" d="M242.831,80.125c-0.418,0.209-1.24,0.418-2.312,0.418l-0.301,0.522c0.483,0.091,0.914,0.444,0.914,0.979
			c0,0.757-0.666,1.058-1.345,1.058c-0.34,0-0.705-0.091-0.928-0.222l0.183-0.588c0.196,0.104,0.444,0.17,0.731,0.17
			c0.301,0,0.549-0.118,0.549-0.392c0-0.353-0.404-0.496-1.019-0.562l0.549-1.006c-2.155-0.261-3.696-1.79-3.696-4.415
			c0-2.756,1.867-4.624,4.598-4.624c1.097,0,1.789,0.235,2.09,0.392l-0.274,0.927c-0.432-0.209-1.045-0.366-1.776-0.366
			c-2.064,0-3.436,1.319-3.436,3.631c0,2.155,1.241,3.54,3.383,3.54c0.692,0,1.397-0.144,1.854-0.366L242.831,80.125z"/>
		<path class="st1" d="M247.555,77.643l-0.914,2.769h-1.176l2.991-8.804h1.372l3.004,8.804h-1.215l-0.94-2.769H247.555z
			 M247.555,71.073c-0.013-0.797,0.327-1.333,0.889-1.333c0.287,0,0.51,0.118,0.783,0.261c0.209,0.118,0.418,0.235,0.614,0.235
			c0.209,0,0.326-0.092,0.353-0.51h0.614c0.013,0.823-0.274,1.267-0.889,1.267c-0.274,0-0.509-0.104-0.797-0.248
			c-0.248-0.13-0.418-0.248-0.613-0.248c-0.209,0-0.301,0.222-0.34,0.575H247.555z M250.442,76.755l-0.861-2.534
			c-0.196-0.574-0.327-1.097-0.458-1.606h-0.025c-0.131,0.522-0.274,1.058-0.444,1.594l-0.862,2.547H250.442z"/>
		<path class="st1" d="M263.28,75.919c0,3.03-1.842,4.637-4.089,4.637c-2.325,0-3.958-1.802-3.958-4.467
			c0-2.795,1.737-4.624,4.089-4.624C261.725,71.465,263.28,73.306,263.28,75.919z M256.448,76.062c0,1.881,1.02,3.566,2.809,3.566
			c1.803,0,2.821-1.659,2.821-3.657c0-1.75-0.914-3.579-2.809-3.579C257.388,72.392,256.448,74.129,256.448,76.062z"/>
		<path class="st1" d="M272.6,77.643l-0.914,2.769h-1.176l2.991-8.804h1.372l3.004,8.804h-1.215l-0.94-2.769H272.6z M275.487,76.755
			l-0.861-2.534c-0.196-0.574-0.327-1.097-0.458-1.606h-0.025c-0.131,0.522-0.274,1.058-0.444,1.594l-0.862,2.547H275.487z"/>
		<path class="st1" d="M285.591,71.726c0.692-0.104,1.516-0.183,2.417-0.183c1.633,0,2.795,0.378,3.565,1.097
			c0.784,0.718,1.241,1.737,1.241,3.161c0,1.437-0.444,2.612-1.267,3.422c-0.823,0.823-2.182,1.267-3.893,1.267
			c-0.811,0-1.489-0.039-2.064-0.104V71.726z M286.728,79.51c0.287,0.052,0.705,0.065,1.149,0.065c2.43,0,3.749-1.358,3.749-3.735
			c0.013-2.077-1.163-3.396-3.566-3.396c-0.588,0-1.031,0.053-1.332,0.118V79.51z"/>
		<path class="st1" d="M297.253,71.608v8.804h-1.136v-8.804H297.253z"/>
		<path class="st1" d="M300.908,79.027c0.51,0.313,1.254,0.575,2.037,0.575c1.163,0,1.842-0.614,1.842-1.502
			c0-0.823-0.47-1.293-1.658-1.75c-1.438-0.509-2.325-1.254-2.325-2.495c0-1.372,1.137-2.391,2.848-2.391
			c0.901,0,1.554,0.209,1.946,0.431l-0.313,0.927c-0.288-0.157-0.876-0.418-1.672-0.418c-1.202,0-1.659,0.719-1.659,1.319
			c0,0.823,0.535,1.228,1.75,1.698c1.489,0.574,2.247,1.293,2.247,2.586c0,1.358-1.006,2.534-3.083,2.534
			c-0.849,0-1.776-0.249-2.246-0.562L300.908,79.027z"/>
		<path class="st1" d="M311.002,72.575h-2.677v-0.967h6.518v0.967h-2.69v7.837h-1.15V72.575z"/>
		<path class="st1" d="M318.092,77.643l-0.914,2.769h-1.176l2.991-8.804h1.372l3.004,8.804h-1.215l-0.94-2.769H318.092z
			 M320.157,69.649l1.371,1.489h-0.967l-0.822-0.901h-0.026l-0.836,0.901h-0.928l1.332-1.489H320.157z M320.979,76.755l-0.862-2.534
			c-0.195-0.574-0.326-1.097-0.457-1.606h-0.025c-0.131,0.522-0.274,1.058-0.444,1.594l-0.862,2.547H320.979z"/>
		<path class="st1" d="M326.488,80.412v-8.804h1.241l2.821,4.454c0.653,1.032,1.162,1.959,1.58,2.86l0.026-0.013
			c-0.104-1.176-0.13-2.247-0.13-3.618v-3.684h1.07v8.804h-1.149l-2.795-4.467c-0.614-0.98-1.202-1.985-1.646-2.939l-0.039,0.013
			c0.064,1.11,0.091,2.168,0.091,3.631v3.762H326.488z"/>
		<path class="st1" d="M343.06,80.125c-0.418,0.209-1.254,0.418-2.325,0.418c-2.481,0-4.349-1.567-4.349-4.454
			c0-2.756,1.867-4.624,4.598-4.624c1.097,0,1.789,0.235,2.09,0.392l-0.274,0.927c-0.432-0.209-1.045-0.366-1.776-0.366
			c-2.064,0-3.436,1.319-3.436,3.631c0,2.155,1.241,3.54,3.383,3.54c0.692,0,1.397-0.144,1.854-0.366L343.06,80.125z"/>
		<path class="st1" d="M347.446,71.608v8.804h-1.136v-8.804H347.446z"/>
		<path class="st1" d="M352.681,77.643l-0.914,2.769h-1.176l2.991-8.804h1.372l3.004,8.804h-1.215l-0.94-2.769H352.681z
			 M355.568,76.755l-0.861-2.534c-0.196-0.574-0.327-1.097-0.458-1.606h-0.025c-0.131,0.522-0.274,1.058-0.444,1.594l-0.862,2.547
			H355.568z"/>
	</g>
</g>
</svg>